<svg id="Слой_1" data-name="Слой 1" xmlns="http://www.w3.org/2000/svg" viewBox="0 0 625.8 608.55"><defs><style>.cls-1{fill:none;stroke:#f4bfbf;stroke-miterlimit:10;stroke-width:3px;}.cls-2{fill:#c66;}.cls-3{fill:#bc6161;}.cls-4{fill:#f6b6c5;}</style></defs><path class="cls-1" d="M823.1,462.51" transform="translate(-127.3 -120.92)"/><path class="cls-2" d="M450.55,120.92q-25.31,14.38-50.62,28.76l12.66,58.67,28.18,11.51,9.78,36.81,15.69,52.82,24.57,61.06,32.13,60.74,36.9,50.85,61,40.26,44.86,28.76h28.76l38-5.75,12.66,5.75,8.05-28.76-9.2-20.7,9.2-10.36-8.05-13.8,8.05-12.66-11.51-14.95-9.2,8.05L699,420l-29.91-33.36-26.46-36.81-14.95-33.36-15-28.76-32.21-38-31.06-34.51L532.23,204.9l-13.81-46-21.85-38Z" transform="translate(-127.3 -120.92)"/><path class="cls-3" d="M365.42,156.58v-13.8l20.94,13.8,13.57-6.9,12.66,21.86v36.81l28.18,11.51,9.78,36.81L478.16,328l12.65,42.56,69,111.59,47.65,31.47,58.18,37.55Q657.83,570,650,588.79l-37.24,34.85-35.66,11.5s-51.77,17.26-55.22,16.11-42.56,0-42.56,0l-26.46-49.52V551.16L431,458l-35.66-52.69-29.91-24.38-23-67.87q-8.64-51.19-17.26-102.39l-26.46-15L342.42,183Z" transform="translate(-127.3 -120.92)"/><path class="cls-2" d="M342.42,246.31c.8-5.28-17.26-35.66-17.26-35.66s-21.86-15-26.46-15S278,209.5,278,209.5l-17.25,4.6h0l-17.1,25-16.26,9.47-8-5.75v32.21L232,300.38l9.2,50.62,39.7,54.29,45.43,96.41,24.16,125.39,25.31,56.37,46,35.66L454,688.06l25.31-36.76-8.54-16-17.92-33.54V551.16L431,458l-35.66-52.69-29.91-24.38-23-67.87Z" transform="translate(-127.3 -120.92)"/><path class="cls-3" d="M219.33,242.86l-12.66,10.36-19.56-5.76-10.35,13.81-4.6,13.8-12.65-13.8-21.86-13.81L127.3,261.27,140,275.07v27.61L135.35,328l-8,46s20.7,48.31,16.1,48.31,29.91,84,29.91,84l23,100.08s28.76,73.62,32.21,78.23,17.25,44.86,17.25,44.86l25.31-10.35V703l42.57,16.11,31.39,10.35,76.68-10.35-46-35.66-25.31-56.37L326.31,501.7l-45.43-96.41L241.18,351,232,300.38Q225.65,271.63,219.33,242.86Z" transform="translate(-127.3 -120.92)"/><path class="cls-4" d="M140,297.51l125.15-8,103-11,31.83-35.65,89.17-26.35,35.22-38,7.91,26.36,17.25,10.35L570,238,452.85,262.61l-44.75,11.9-25,32-125,15L135.35,328Z" transform="translate(-127.3 -120.92)"/><polyline class="cls-4" points="16.11 301.4 185.8 260.59 252.8 260.59 311.8 207.07 480.52 160.98 500.41 195.56 515.37 228.92 329.8 247.59 276.48 296.84 187.8 301.4 33.16 353.27 16.11 305.17"/><polygon class="cls-4" points="53.98 420.01 196.8 406.59 294.43 406.59 363.8 365.24 442.68 336.48 551.13 276.12 589.71 319.55 463.8 393.59 387.8 447.59 304.8 464.59 200.8 476.59 69.02 485.46 53.98 420.01"/></svg>