<svg id="Слой_1" data-name="Слой 1" xmlns="http://www.w3.org/2000/svg" viewBox="0 0 514.34 514.34"><defs><style>.cls-1{fill:#f7a435;}.cls-2{fill:#fbb936;}</style></defs><polygon class="cls-1" points="14 200.27 24.68 193.58 9.48 195.28 14 200.27"/><path class="cls-1" d="M417.27,175.85a70.23,70.23,0,1,1-138.68,0H161.2V381.31a60.42,60.42,0,1,1,0,97.86v211h51.65a58.36,58.36,0,1,1,106,0H675.54V175.85ZM259.63,533c-5.78-1.43-12.54-6.42-12.91-12.91-.47-8,9.18-13.37,13.36-15.68,4.49-2.47,10.07-5.56,15.69-3.29,6.25,2.52,9.45,10.42,8.59,16.67C282.92,528.24,270,535.58,259.63,533Zm207.08,15.5c-15.36.06-27.9-14.32-28.92-28.92-1.38-19.74,18.65-35.11,35-34.13,1.27.08,13.48,1,20.21,11.12,6,8.95,3.56,19,2.6,23C493.26,529.46,484.3,548.42,466.71,548.5Zm72.81,86.75c-10.07,0-17.63-10.08-19.11-19.1-1.83-11.25,5.21-24.45,16.58-26.61a20,20,0,0,1,19.7,8.08c5,7.3,2.75,15.57,1.94,18.53C556.84,622.67,550.69,635.2,539.52,635.25ZM513.19,397.71A55.78,55.78,0,1,1,569,341.93,55.78,55.78,0,0,1,513.19,397.71Z" transform="translate(-161.2 -175.85)"/><path class="cls-2" d="M424.14,176.2a68,68,0,1,1-134.28,0H176.2V375.13a58.5,58.5,0,1,1,0,94.74V674.2h50a56.5,56.5,0,1,1,102.58,0H674.2v-498ZM271.5,522A12.5,12.5,0,1,1,284,509.5,12.5,12.5,0,0,1,271.5,522ZM472,537a28,28,0,1,1,28-28A28,28,0,0,1,472,537Zm70.5,84A18.5,18.5,0,1,1,561,602.5,18.5,18.5,0,0,1,542.5,621ZM517,391a54,54,0,1,1,54-54A54,54,0,0,1,517,391Z" transform="translate(-161.2 -175.85)"/><path class="cls-1" d="M208.24,675.2l4.61,15H161.2v-211l14,7.56V675.2Z" transform="translate(-161.2 -175.85)"/><path class="cls-1" d="M161.2,479.17l15-9.3q-.51,102.68-1,205.33h50v15h-64Z" transform="translate(-161.2 -175.85)"/><polygon class="cls-1" points="14 200.27 0 205.46 0 0 14 1.34 14 200.27"/><polygon class="cls-1" points="166.59 499.34 157.6 514.34 514.34 514.34 512 499.34 166.59 499.34"/><polygon class="cls-1" points="64.01 514.34 65.01 498.34 41.31 498.34 37.52 514.34 64.01 514.34"/></svg>