<svg id="Слой_1" data-name="Слой 1" xmlns="http://www.w3.org/2000/svg" viewBox="0 0 472.23 423"><defs><style>.cls-1{fill:#6d3d3d;}.cls-1,.cls-10,.cls-11,.cls-13,.cls-14,.cls-3,.cls-4,.cls-6,.cls-7,.cls-8,.cls-9{stroke:#1d1d1b;stroke-miterlimit:10;stroke-width:7px;}.cls-2{fill:#b03132;}.cls-3{fill:#f9bd82;}.cls-4{fill:#a166a7;}.cls-5{fill:#c78e59;}.cls-6{fill:none;}.cls-7{fill:#f4cb1c;}.cls-8{fill:#cda2cb;}.cls-9{fill:#ed6e6f;}.cls-10{fill:#70af53;}.cls-11{fill:#a03433;}.cls-12{fill:#f29295;}.cls-13{fill:#fff;}.cls-14{fill:#fde9d9;}</style></defs><path class="cls-1" d="M601.26,573.68H256.17c-20.75,11.69-29.9,9.09-33,7.71-7.95-3.51-8.84-13.12-10.41-46.1-.56-11.69-1.18-25.84-1.77-42a24.2,24.2,0,0,1,10.59-18.06c6.55-4.63,15.6-7.49,25.59-7.49H607.22c20,0,36.19,11.44,36.19,25.55a244,244,0,0,1,2.32,39.1c-.54,25.94-1,46.17-13.49,50.57C629.28,584,620.11,586.14,601.26,573.68Z" transform="translate(-191.31 -212.66)"/><path class="cls-2" d="M218.27,544.58c.4-.06.66,2.07,2.57,4.13,2.55,2.76,6.69,3.88,10.32,4.36a41.39,41.39,0,0,0,9.26,1.52c6.53.29,12.5-1.18,21.43-3.16,24-5.34,34.6,7.39,76.55,9.51,15.84.8,12.33-1.12,40.17-1.64,49.37-.93,57.13,5.19,98.15,3.28,25.18-1.18,23.57-3.54,47.36-3.94,35.13-.58,38.84,4.57,58.74.33,23.78-5.07,30.84-10.51,42.06-8.53,6.49,1.15,15.56,5.29,15.33,8.77-1.42,21.7-364.93,8.71-402.23,17.46-1.75.42-10.19,2.61-14.78-.65-3.19-2.27-2.15-5.47-3.41-17C218.93,551.08,217.59,544.69,218.27,544.58Z" transform="translate(-191.31 -212.66)"/><path class="cls-3" d="M200.58,570.1c0,34.27,34,62.06,75.86,62.06h307.1c41.9,0,75.86-27.79,75.86-62.06V559.63c-70.16,5.36-147.1,8.76-229.9,8.74-82.42,0-159-3.4-228.92-8.74Z" transform="translate(-191.31 -212.66)"/><path class="cls-4" d="M439.15,468.53c-9.52,5.92-32.73,18.71-66.77,21.83a163.3,163.3,0,0,1-71.67-9.4q.6,7.11,1.19,14.21a156.07,156.07,0,0,0,111.21,15.4s4.34-1.46,32.78-14.51Q442.52,482.3,439.15,468.53Z" transform="translate(-191.31 -212.66)"/><path class="cls-5" d="M234.07,562a55.39,55.39,0,0,0,9.21,36.19c18,27,53.73,33.12,59.12,34-7,1.31-39.29,6.78-65.94-7.93a76.1,76.1,0,0,1-21.14-17.38,71,71,0,0,1-13.46-25.38c-.91-3.24-5.33-18.91,1-21.67,2.2-1,4.35-.21,9.67.72A104.89,104.89,0,0,0,234.07,562Z" transform="translate(-191.31 -212.66)"/><path class="cls-6" d="M200.58,570.1c0,34.27,34,62.06,75.86,62.06h307.1c41.9,0,75.86-27.79,75.86-62.06V559.63c-70.16,5.36-147.1,8.76-229.9,8.74-82.42,0-159-3.4-228.92-8.74Z" transform="translate(-191.31 -212.66)"/><path class="cls-7" d="M222.57,446.54c-12.64,12.75-20.18,35.81-11.07,50,8.89,13.82,26.15,8.14,43.39,20.4,36.5,26,17.21,92.71,29.27,94.4,5.75.8,12.92-14,17.9-24.23,14.34-29.52,15.8-55.73,17.75-55.56s-.57,38.33,5.55,40.16c5.6,1.67,10.17-29.58,27.73-35.48,10.34-3.47,16,4.94,32.16,9.37,18.59,5.1,30.88-.59,49.36-4.68,31.15-6.9,38.16-.06,76-2l2-.11c33.54-1.92,138.64-43,133.56-63.58-4.82-19.52-98.93,20.75-244.69-7.36C312.29,450.65,251.77,417.08,222.57,446.54Z" transform="translate(-191.31 -212.66)"/><path class="cls-8" d="M524.94,469a126.61,126.61,0,0,1-31,8.83c-58.24,8.7-116-26.48-116-26.48h0v28.36s82.1,39.54,116,26.49,35.13-17.28,35.13-17.28Q527,478.93,524.94,469Z" transform="translate(-191.31 -212.66)"/><path class="cls-4" d="M625.88,442.22a126.58,126.58,0,0,1-25.07,20.12c-50.23,30.57-117.22,20.54-117.22,20.54L494,506.17a215.47,215.47,0,0,0,49.56,2c27.26-2.08,51-2.92,68.4-19.69C638,463.32,637.51,459,637.51,459Q631.69,450.58,625.88,442.22Z" transform="translate(-191.31 -212.66)"/><path class="cls-9" d="M421.39,446.25a68.65,68.65,0,0,0,17.43,30c18.93,19.4,44.68,25.15,53.75,26.75,25.54,4.53,49.39-3.45,97.07-19.4C634.92,468.47,637.23,462,637.51,459c.55-6.15-13.08-18.4-40.37-42.65l-1.87-1.65c-26.65-23.27-73.24-13.95-82.82-12-12.15,2.43-23.1,7.95-45.11,18.65C447.46,430.92,431.86,439.9,421.39,446.25Z" transform="translate(-191.31 -212.66)"/><path class="cls-9" d="M205.41,445a70.08,70.08,0,0,0,24.23,36.15c20.39,16.21,45,18.84,67.3,21.23,13.83,1.48,48,4.78,86.56-9A156.81,156.81,0,0,0,434.27,464c-17-28-33.37-35.38-45.63-36.54-25-2.37-39.56,16.11-67.66,14.11-14.73-1-20-5.61-33.42-9.54a150.1,150.1,0,0,0-17.24-3.63C263,427.21,241.46,425.35,205.41,445Z" transform="translate(-191.31 -212.66)"/><path class="cls-10" d="M206.3,426.08c-1.85,23.19-1.63,53.94,8.13,56.51,10.68,2.8,22.35-31.13,41.72-29.94,14.73.9,17.26,21.07,34.45,25.78,12.43,3.41,29.75-2,54.38-24.18,4.64,7.53,13.65,19.82,28.44,27.5,25.58,13.29,50.9,3.71,67.48-2.57,29.81-11.28,49.37-32.13,59.87-45.62.37,1.72,4.79,20.72,23.16,27.66,17.76,6.71,41.22-.61,53.28-19,6.25,11.27,19.49,30.35,43.77,39.61,7.59,2.9,17.71,7.31,23.63,2.71,7.42-5.74,6.49-20.66,4.64-46a364.46,364.46,0,0,0-5.16-40.09L227,380.38l-18.12,13.23Q207.6,409.84,206.3,426.08Z" transform="translate(-191.31 -212.66)"/><path class="cls-11" d="M483.66,336c3.42-2.05,8.19-4.11,12.57-2.57,6,2.12,5.73,9.1,11.83,11.39,5.76,2.17,8.35-3.18,16.64-2.57s9,6.18,18.49,8.82c10,2.8,11.81-2.66,21.81-.73,13.11,2.52,12.83,12.43,25.89,15.07,11,2.21,17.09-3.6,22.55,1.1,4.07,3.51,2.18,8.06,6.29,13.23,4.42,5.58,11.92,7,17.37,7.35a122.65,122.65,0,0,1-11.94,63.68c-3-3-7.73-6.64-13.94-7.44-7-.9-9.23,2.63-15.53,2.94-11.9.58-14.69-11.51-29.58-16.54-12.82-4.34-14.9,3.23-28.47-.37-18.19-4.82-18.35-19.46-34-21-9.46-.9-12.7,4.13-25.15,2.57a46.74,46.74,0,0,1-17.37-5.88A84,84,0,0,1,483.66,336Z" transform="translate(-191.31 -212.66)"/><polygon class="cls-12" points="303.65 156.86 369.82 169.3 435.63 190.99 376.25 162.65 303.65 156.86"/><path class="cls-11" d="M394.43,392.33c.23,6.18-.66,11.13-3.8,12.54-5.24,2.37-12.34-7.12-18.74-4.8-5.92,2.15-3.37,11.5-9.88,14.69s-12.91-4.76-20.64-1.85-5.29,12.2-13.31,16-13.68-4.14-23.3-1.14c-11.45,3.57-12.58,17.67-20.66,17.47-5.71-.15-8.94-7.05-12.19-5.82-2.45.92-2.73,5.66-2.54,9.8-8.28-4.69-24.13-15.21-34.49-34.28a78.74,78.74,0,0,1-8.19-23.07c3.92.4,9.38.3,14.28-2.7,5.49-3.37,5.05-7.19,9.36-11,8.15-7.26,17.18-.24,30.73-5.22,11.67-4.28,8.75-10.87,20.52-16.11,15.79-7,24.42,3.32,36.46-4.62,7.27-4.8,6.65-10.25,16.43-16.3a43.23,43.23,0,0,1,15.82-5.8,77.21,77.21,0,0,1,24.14,62.26Z" transform="translate(-191.31 -212.66)"/><path class="cls-11" d="M325.33,314.17c4.28-.84,10-1.26,14.26,1.64,5.86,4,3.48,10.58,9.36,14.76,5.55,3.94,9.9-.32,18.63,3s7.9,8.86,17.27,14.47c9.89,5.92,13.46,1.3,23.65,6.41,13.33,6.69,10.12,16.08,23.37,22.86,11.14,5.7,19.42,2.14,23.9,8.41,3.35,4.69,0,8.42,2.86,14.71,3.12,6.77,10.76,10.58,16.51,12.7A110.4,110.4,0,0,1,460.62,449a115,115,0,0,1-17,21.06,28.7,28.7,0,0,0-12.78-11.67c-7.23-3.13-10.7-.49-17.55-2.25-12.95-3.33-12.39-15.8-26.91-25.47-12.5-8.33-17-1.77-30.48-9.64-18.12-10.55-14-24.6-30.38-31.14-9.89-3.94-14.85-.19-27.76-5.74a57.23,57.23,0,0,1-16.94-11.29,75.41,75.41,0,0,1,13.66-33.14A84,84,0,0,1,325.33,314.17Z" transform="translate(-191.31 -212.66)"/><path class="cls-3" d="M660,401.84c-3-104.11-110.23-187.36-236.42-185.66-123.31,1.67-225.76,83.94-228.62,185.66,71.68,3.83,147.64,6.12,227.49,6.21C506,408.15,585.29,405.83,660,401.84Z" transform="translate(-191.31 -212.66)"/><path class="cls-5" d="M485,222.2c-31.43,5.45-92.9,19.66-153.08,59.85-64.49,43.07-93.53,93.27-105.35,117.64-9.64,2.74-21.94,4.82-28.8,0-12.81-9,.9-36.76,8.53-52.21a200.47,200.47,0,0,1,37.86-52.55c16.18-15.78,53.41-52.21,120.6-68.83A294.13,294.13,0,0,1,485,222.2Z" transform="translate(-191.31 -212.66)"/><path class="cls-13" d="M445.89,439.19" transform="translate(-191.31 -212.66)"/><path class="cls-13" d="M634.35,413.44" transform="translate(-191.31 -212.66)"/><path class="cls-14" d="M235.37,382.62c-1.1-7.42,22.62-17.78,27.3-14.19,3.48,2.66-3.44,13.14-3.77,13.63-2.24,3.34-4.17,6.22-8,7.21C244.67,390.89,236,386.8,235.37,382.62Z" transform="translate(-191.31 -212.66)"/><path class="cls-14" d="M301.75,354.05c-1.1-7.42,22.62-17.78,27.3-14.19,3.48,2.66-3.44,13.14-3.77,13.63-2.24,3.34-4.17,6.21-8,7.21C311.05,362.32,302.38,358.23,301.75,354.05Z" transform="translate(-191.31 -212.66)"/><path class="cls-14" d="M287.6,298c-1.11-7.42,22.62-17.78,27.29-14.19,3.48,2.66-3.44,13.14-3.77,13.63-2.24,3.34-4.16,6.21-8,7.21C296.89,306.3,288.22,302.21,287.6,298Z" transform="translate(-191.31 -212.66)"/><path class="cls-14" d="M237.08,337.47c-1.1-7.42,22.62-17.78,27.3-14.19,3.48,2.66-3.44,13.14-3.77,13.64-2.24,3.33-4.17,6.21-8,7.2C246.37,345.74,237.71,341.66,237.08,337.47Z" transform="translate(-191.31 -212.66)"/><path class="cls-14" d="M358.24,382.08c-1.1-7.41,22.62-17.77,27.3-14.19,3.48,2.67-3.44,13.15-3.77,13.64-2.24,3.34-4.17,6.21-8,7.2C367.54,390.36,358.87,386.27,358.24,382.08Z" transform="translate(-191.31 -212.66)"/><path class="cls-14" d="M363,250.31c-1.1-7.41,22.62-17.77,27.3-14.19,3.48,2.67-3.44,13.15-3.77,13.64-2.24,3.34-4.17,6.21-8,7.2C372.28,258.59,363.61,254.5,363,250.31Z" transform="translate(-191.31 -212.66)"/><path class="cls-14" d="M348.83,301.07c-1.11-7.41,22.62-17.77,27.29-14.19,3.48,2.67-3.44,13.15-3.77,13.64-2.24,3.34-4.16,6.21-8,7.2C358.12,309.35,349.45,305.26,348.83,301.07Z" transform="translate(-191.31 -212.66)"/><path class="cls-14" d="M386.55,326.5c-1.1-7.41,22.62-17.77,27.3-14.19,3.48,2.67-3.45,13.15-3.77,13.64-2.24,3.33-4.17,6.21-8,7.2C395.84,334.77,387.18,330.69,386.55,326.5Z" transform="translate(-191.31 -212.66)"/><path class="cls-14" d="M641.06,373.23c1.11-7.42-22.62-17.78-27.29-14.19-3.48,2.66,3.44,13.14,3.77,13.63,2.24,3.34,4.16,6.21,8,7.21C631.77,381.5,640.44,377.41,641.06,373.23Z" transform="translate(-191.31 -212.66)"/><path class="cls-14" d="M589.23,312c1.1-7.41-22.62-17.77-27.3-14.19-3.48,2.67,3.44,13.15,3.77,13.64,2.24,3.33,4.17,6.21,8,7.2C579.93,320.32,588.6,316.23,589.23,312Z" transform="translate(-191.31 -212.66)"/><path class="cls-14" d="M569.77,373.23c1.1-7.42-22.62-17.78-27.3-14.19-3.48,2.66,3.44,13.14,3.77,13.63,2.24,3.34,4.17,6.21,8,7.21C560.47,381.5,569.14,377.41,569.77,373.23Z" transform="translate(-191.31 -212.66)"/><path class="cls-6" d="M660,401.84c-3-104.11-110.23-187.36-236.42-185.66-123.31,1.67-225.76,83.94-228.62,185.66,71.68,3.83,147.64,6.12,227.49,6.21C506,408.15,585.29,405.83,660,401.84Z" transform="translate(-191.31 -212.66)"/><path class="cls-14" d="M498.56,373.23c1.1-7.42-22.62-17.78-27.3-14.19-3.48,2.66,3.44,13.14,3.77,13.63,2.24,3.34,4.17,6.21,8,7.21C489.26,381.5,497.93,377.41,498.56,373.23Z" transform="translate(-191.31 -212.66)"/><path class="cls-14" d="M478.4,319.93c1.1-7.41-22.62-17.77-27.3-14.19-3.48,2.67,3.44,13.15,3.77,13.64,2.24,3.34,4.17,6.21,8,7.2C469.1,328.21,477.77,324.12,478.4,319.93Z" transform="translate(-191.31 -212.66)"/><path class="cls-14" d="M541.46,269.75c1.1-7.42-22.62-17.78-27.3-14.19-3.48,2.66,3.45,13.14,3.77,13.63,2.24,3.34,4.17,6.21,8,7.21C532.17,278,540.83,273.93,541.46,269.75Z" transform="translate(-191.31 -212.66)"/><path class="cls-14" d="M466.34,253.9c1.1-7.42-22.62-17.78-27.3-14.19-3.48,2.66,3.45,13.14,3.77,13.63,2.24,3.34,4.17,6.21,8,7.21C457.05,262.17,465.71,258.08,466.34,253.9Z" transform="translate(-191.31 -212.66)"/><path class="cls-14" d="M539.09,328.23c1.11-7.41-22.61-17.77-27.29-14.19-3.48,2.67,3.44,13.15,3.77,13.64,2.24,3.34,4.17,6.21,8,7.2C529.8,336.51,538.47,332.42,539.09,328.23Z" transform="translate(-191.31 -212.66)"/><path class="cls-5" d="M223.18,448.72" transform="translate(-191.31 -212.66)"/></svg>