<svg id="Слой_1" data-name="Слой 1" xmlns="http://www.w3.org/2000/svg" viewBox="0 0 700.78 700.84"><defs><style>.cls-1{fill:#513333;}.cls-2{fill:#784c4c;}.cls-3{fill:#664342;}.cls-4{fill:#5b3636;}</style></defs><path class="cls-1" d="M74.61,438.16l220.7,322.19c-45.34-12.13-93.67-34.82-135.08-77.21C80.32,601.3,74.65,495.59,74.61,438.16Z" transform="translate(-74.61 -73.43)"/><path class="cls-1" d="M106.79,250.6,464.94,773.46c-15.67.78-29.27.8-39.9.81-19.15,0-46.69.05-78.23-3.94L76.43,375.62C79.18,340,86.52,295.29,106.79,250.6Z" transform="translate(-74.61 -73.43)"/><path class="cls-1" d="M643.48,721.62c-45.37,29.22-94.44,42.21-136.52,48L126.47,214.15a287.36,287.36,0,0,1,102.9-97.05Z" transform="translate(-74.61 -73.43)"/><path class="cls-1" d="M750.56,590.53a275.53,275.53,0,0,1-54.16,86.69,272,272,0,0,1-23.33,22.42L263,101c49.62-20.12,98.35-25.26,133.9-26.75Z" transform="translate(-74.61 -73.43)"/><path class="cls-1" d="M764.46,545.64,441,73.43c59.31-.12,166.16,5.79,247.12,86.55,87,86.85,87.18,203.46,87.25,263.94C775.43,454.52,775.48,498.46,764.46,545.64Z" transform="translate(-74.61 -73.43)"/><path class="cls-1" d="M346.81,770.33a387.56,387.56,0,0,1-51.5-10L74.61,438.16c0-5.15,0-9.92.08-14.24.12-12.59.27-29.14,1.74-48.3Z" transform="translate(-74.61 -73.43)"/><path class="cls-1" d="M673.07,699.64a271,271,0,0,1-29.59,22L229.37,117.1A304.54,304.54,0,0,1,263,101Z" transform="translate(-74.61 -73.43)"/><path class="cls-1" d="M764.46,545.64a318.65,318.65,0,0,1-13.9,44.89L396.92,74.26c10.67-.46,20.16-.58,28.12-.68,4.82-.06,10.18-.14,16-.15Z" transform="translate(-74.61 -73.43)"/><path class="cls-1" d="M574,91.47,774.77,384.58c-.95-23.57-3.38-50.75-9.62-79.22L639,121.15A294,294,0,0,0,574,91.47Z" transform="translate(-74.61 -73.43)"/><path class="cls-1" d="M507,769.62c-15.07,2.06-29.24,3.2-42,3.84L106.79,250.6a296.24,296.24,0,0,1,19.68-36.45Z" transform="translate(-74.61 -73.43)"/><path class="cls-2" d="M88.61,438.87l212,309.46c-43.55-11.65-90-33.44-129.74-74.16C94.1,595.56,88.65,494,88.61,438.87Z" transform="translate(-74.61 -73.43)"/><path class="cls-2" d="M119.52,258.72l344,502.2c-15,.75-28.11.77-38.32.78-18.4,0-44.85,0-75.14-3.78L90.36,378.8C93,344.54,100.05,301.64,119.52,258.72Z" transform="translate(-74.61 -73.43)"/><path class="cls-2" d="M635,711.13c-43.58,28.07-90.71,40.54-131.13,46.1L138.42,223.71a275.91,275.91,0,0,1,98.84-93.22Z" transform="translate(-74.61 -73.43)"/><path class="cls-2" d="M737.86,585.22A263.14,263.14,0,0,1,663.43,690L269.58,115C317.24,95.71,364,90.78,398.19,89.34Z" transform="translate(-74.61 -73.43)"/><path class="cls-2" d="M751.21,542.1,440.54,88.55c57-.12,159.59,5.56,237.35,83.13,83.6,83.42,83.74,195.42,83.81,253.51C761.74,454.58,761.79,496.79,751.21,542.1Z" transform="translate(-74.61 -73.43)"/><path class="cls-3" d="M1033.72,369.49" transform="translate(-74.61 -73.43)"/><path class="cls-4" d="M350.06,757.92a372.85,372.85,0,0,1-49.47-9.59l-212-309.46c0-4.95,0-9.53.08-13.68.11-12.09.26-28,1.67-46.39Z" transform="translate(-74.61 -73.43)"/><path class="cls-4" d="M663.43,690A260.58,260.58,0,0,1,635,711.13L237.26,130.49A293,293,0,0,1,269.58,115Z" transform="translate(-74.61 -73.43)"/><path class="cls-4" d="M751.21,542.1a307.58,307.58,0,0,1-13.35,43.12L398.19,89.34c10.25-.44,19.36-.55,27-.65,4.63-.06,9.77-.13,15.34-.14Z" transform="translate(-74.61 -73.43)"/><path class="cls-4" d="M568.26,105.88,761.11,387.41c-.91-22.64-3.24-48.75-9.24-76.09L630.67,134.38A282.92,282.92,0,0,0,568.26,105.88Z" transform="translate(-74.61 -73.43)"/><path class="cls-4" d="M503.88,757.23c-14.47,2-28.08,3.08-40.36,3.69l-344-502.2a283.6,283.6,0,0,1,18.9-35Z" transform="translate(-74.61 -73.43)"/></svg>