<svg id="Слой_1" data-name="Слой 1" xmlns="http://www.w3.org/2000/svg" viewBox="0 0 676.92 282.12"><defs><style>.cls-1{fill:#faf1f8;}.cls-2{fill:#a15ea2;}.cls-3{fill:none;stroke:#a15ea2;stroke-miterlimit:10;}.cls-4{fill:#b173ae;}</style></defs><ellipse class="cls-1" cx="235.06" cy="164.38" rx="231.9" ry="88.98"/><path class="cls-2" d="M89.9,438.79l1.79,23.49,21.2,24.34,44.18,23.95,31,10.07,36.33,8.07,66.74,8.22L373,534.75l50.94-6.9,59.5-16.1L513.53,498l27.78-21.3,10.18-16.5,2.2-12.26,1.8,28.76L551,494.16,534.79,513.5,513.15,528l-27.46,12.36-49.28,14.13L398,561l-49,4.68H295.19l-57.54-6.32s-49.09-10.3-51.61-11-44.37-16.46-44.37-16.46l-25.86-15.64L94.23,496.7l-7.49-17Q88.32,459.23,89.9,438.79Z" transform="translate(-86.74 -283.56)"/><ellipse class="cls-3" cx="235.96" cy="164.38" rx="215.25" ry="67.99"/><ellipse class="cls-3" cx="236.79" cy="165.88" rx="225.07" ry="78.34"/><ellipse class="cls-3" cx="235.1" cy="162.56" rx="201.81" ry="60.79"/><ellipse class="cls-3" cx="236.66" cy="162.82" rx="190.78" ry="51.87"/><ellipse class="cls-3" cx="233.67" cy="159.71" rx="171.66" ry="37.73"/><ellipse class="cls-3" cx="234.34" cy="160.55" rx="179.5" ry="43.47"/><ellipse class="cls-3" cx="232.99" cy="159.2" rx="160.95" ry="31"/><ellipse class="cls-3" cx="246.64" cy="158.23" rx="159.3" ry="21.09"/><ellipse class="cls-3" cx="247.26" cy="158.48" rx="166.58" ry="25.64"/><ellipse class="cls-3" cx="246.01" cy="158.36" rx="149.36" ry="15.79"/><ellipse class="cls-1" cx="543.49" cy="398.6" rx="88.98" ry="231.9" transform="translate(-103.08 490.35) rotate(-70.09)"/><path class="cls-4" d="M328.56,311.05l-6.3,22.69,11.64,30.11,33.39,37.56,25.68,20,31.41,20,60,30.44L562,497.65l50.26,10.86,61.42,5.11,33-2.67,33.38-10.56,15.19-12.06,6.25-10.77-8.11,27.65L743.29,520.1l-21.85,12.66L696.16,539l-30,2.27L615,537.78l-38.35-6.92L529,518.58l-50.6-18.32-51.95-25.53s-42.66-26.4-44.78-27.94-36.11-30.58-36.11-30.58l-19-23.51q-6.81-12.87-13.64-25.73-.62-9.29-1.24-18.57Q320.13,329.73,328.56,311.05Z" transform="translate(-86.74 -283.56)"/><ellipse class="cls-3" cx="544.34" cy="398.91" rx="67.99" ry="215.25" transform="translate(-102.81 491.35) rotate(-70.09)"/><ellipse class="cls-3" cx="544.61" cy="400.61" rx="78.34" ry="225.07" transform="translate(-104.22 492.73) rotate(-70.09)"/><ellipse class="cls-3" cx="544.15" cy="396.91" rx="60.79" ry="201.81" transform="translate(-101.05 489.85) rotate(-70.09)"/><ellipse class="cls-3" cx="545.53" cy="397.68" rx="51.87" ry="190.78" transform="translate(-100.86 491.66) rotate(-70.09)"/><ellipse class="cls-3" cx="543.78" cy="393.75" rx="37.73" ry="171.66" transform="translate(-98.32 487.41) rotate(-70.09)"/><ellipse class="cls-3" cx="544.12" cy="394.76" rx="43.47" ry="179.5" transform="translate(-99.05 488.4) rotate(-70.09)"/><ellipse class="cls-3" cx="543.31" cy="393.03" rx="31" ry="160.95" transform="translate(-97.96 486.5) rotate(-70.09)"/><ellipse class="cls-3" cx="542.5" cy="392.45" rx="24.8" ry="152" transform="translate(-97.94 485.36) rotate(-70.09)"/><ellipse class="cls-3" cx="542.05" cy="392.44" rx="18.44" ry="145.23" transform="translate(-98.23 484.93) rotate(-70.09)"/><ellipse class="cls-3" cx="541.59" cy="392.01" rx="15.15" ry="136.16" transform="translate(-98.13 484.21) rotate(-70.09)"/><ellipse class="cls-3" cx="540.77" cy="391.88" rx="10.21" ry="128.6" transform="translate(-98.55 483.36) rotate(-70.09)"/></svg>