<svg id="Слой_1" data-name="Слой 1" xmlns="http://www.w3.org/2000/svg" viewBox="0 0 798.73 471.52"><defs><style>.cls-1{fill:#43ab36;}.cls-2{fill:#76ba56;}.cls-3{fill:#76aa54;}</style></defs><polygon class="cls-1" points="378.02 63 310.96 0 266.24 31.5 225.41 78.08 174.79 39.04 152.43 63 97.56 78.08 126.01 115.85 0 146.33 46.74 168.69 28.45 184.95 46.74 243.89 46.74 329.25 79.26 382.09 107.72 404.45 160.56 447.13 249.99 457.29 453.22 471.52 544.68 412.58 644.27 380.06 662.56 298.76 731.66 272.34 731.66 215.43 772.31 170.72 798.73 126.01 798.73 89.42 719.47 126.01 674.75 81.3 646.3 99.59 581.26 95.52 536.55 50.81 453.22 50.81 408.51 14.23 378.02 63"/><path class="cls-2" d="M800.94,321.83,748.1,348.25H644.44l-79.26-75.2s-75.2,4.07-83.33,0-65-14.22-65-14.22l-10.16,26.42-58.94-26.42-79.26,44.71s-81.3-18.29-87.39-18.29-26.42,52.84-26.42,52.84l-63,30.48L114,405.16,75.37,441.74,116,484.42v81.3l44.71,12.19h54.88l32.52,61h22.35s30.49-24.39,36.59-26.42,40.64,28.46,46.74,26.42,36.58,18.49,48.78.1A163.17,163.17,0,0,1,429,608.4l50.81,22.35,39-38.61,68.71,16.26,16.26-20.33,42.68-46.74,24.38-61,48.78-27.6,8.13-41.51L800.94,393l26.42-44.71V311.67Z" transform="translate(-28.63 -214.24)"/><polygon class="cls-3" points="692.25 160.47 592.13 177.42 513.58 91.16 572.11 186.66 462.74 197.44 391.89 106.56 433.48 197.44 373.4 209.76 251.72 103.48 280.98 191.28 116.17 185.12 268.66 231.33 208.59 334.53 344.14 243.76 319.49 366.88 399.37 243.76 436.56 366.88 461.2 243.76 564.41 326.83 516.66 243.76 599.84 255.97 642.24 266.11 619.86 238.52 619.86 209.76 747.71 168.17 692.25 160.47"/></svg>