<svg id="Слой_1" data-name="Слой 1" xmlns="http://www.w3.org/2000/svg" viewBox="0 0 605.74 580.75"><defs><style>.cls-1{fill:#d80f2c;}.cls-2{fill:#38a036;}.cls-3{fill:#e55555;}.cls-4{fill:#eb5c5b;}</style></defs><path class="cls-1" d="M428.56,222.94c-23-17.54-75.82-52.23-137.34-43.11C187.4,195.23,128.93,319.68,122.87,413.09c-8.61,132.92,87.45,220.18,99,230.34,84,73.76,182.5,72.82,216.65,72,30.17-.76,154.49-3.91,233-103.4,49.36-62.53,54.58-130.13,55.92-151.24C734,358.69,687.06,214.25,579.07,188.16,516.76,173.1,458.58,203.35,428.56,222.94Z" transform="translate(-122.33 -134.82)"/><path class="cls-2" d="M389.48,213.79s-120.66,21.92-171,99.33c0,0,162.72-26.22,178.66-54.87l31.37-35.31Z" transform="translate(-122.33 -134.82)"/><path class="cls-2" d="M389.48,213.79a118.23,118.23,0,0,0-54-26.46c-39.78-7.86-71.13,7.79-80.35,12.83,36.82-52,97.8-66.58,135.18-43.93,31.53,19.1,37.27,59.21,38.21,66.71Z" transform="translate(-122.33 -134.82)"/><path class="cls-2" d="M428.56,222.94c.42-4.32,6.4-56.71,48.87-78.79,41.09-21.35,99.48-5.59,131.79,42.55a210.65,210.65,0,0,0-180.66,36.24Z" transform="translate(-122.33 -134.82)"/><path class="cls-2" d="M428.56,222.94s42,41.33,86.2,50.33,73.66,7.37,73.66,7.37-5.73-13.1-40.1-45.84S428.56,222.94,428.56,222.94Z" transform="translate(-122.33 -134.82)"/><path class="cls-2" d="M468.92,189.42c11.9-5.76,47.3-20.94,87.58-9.45,52.73,15,83.79,67.22,78.22,74-3.72,4.53-22.11-13.09-66.57-24.78-28.47-7.49-52-8.44-70.81-9.21a414,414,0,0,0-68.78,3Z" transform="translate(-122.33 -134.82)"/><path class="cls-3" d="M558.72,752.74" transform="translate(-122.33 -134.82)"/><path class="cls-2" d="M449.31,172.5a123.78,123.78,0,0,0-41.89-24.16C352.29,129.9,302.49,158.17,292.68,164l135.88,60.94Q438.93,198.72,449.31,172.5Z" transform="translate(-122.33 -134.82)"/><path class="cls-4" d="M518.3,551.54c-1.88,7.66,70,32.76,145.2,19.19,12.14-2.19,27.85-5,27.93-8.25C691.72,551.8,521.1,540.12,518.3,551.54Z" transform="translate(-122.33 -134.82)"/><path class="cls-4" d="M593.33,482.3c-9.62.82-23.58,71.5,9.63,132.65,5.36,9.88,12.3,22.65,16.2,21.69C632,633.47,607.67,481.08,593.33,482.3Z" transform="translate(-122.33 -134.82)"/></svg>